<?xml version="1.0" encoding="UTF-8"?>
<svg width="297px" height="439px" viewBox="0 0 297 439" version="1.1" xmlns="http://www.w3.org/2000/svg" xmlns:xlink="http://www.w3.org/1999/xlink">
    <!-- Generator: Sketch 52.2 (67145) - http://www.bohemiancoding.com/sketch -->
    <title>Path 2</title>
    <desc>Created with Sketch.</desc>
    <g id="Page-1" stroke="none" stroke-width="1" fill="none" fill-rule="evenodd">
        <path d="M0.434468085,0.684713331 L0.434468085,73.357401 C26.856718,72.292027 45.4498976,71.8262543 56.2140068,71.9600829 C76.0500102,72.206701 93.8649374,74.5720868 109.750653,78.7224903 C127.233451,83.2901579 142.379628,90.0198013 155.311635,98.4665498 C175.75034,111.816419 190.65827,129.455443 200.518844,149.627332 C210.870616,170.804073 215.659645,194.772312 215.445248,219.5 C215.264918,240.298634 211.423913,260.347239 203.767172,278.585993 C195.281557,298.799169 182.109352,316.789437 164.039488,331.11418 C150.130793,342.140189 133.320406,350.9945 113.512073,357.019236 C96.6130104,362.159113 77.5319564,365.239543 56.2091441,365.852028 C44.7167373,366.182141 26.1251787,366.027532 0.434468085,365.388202 L0.434468085,437.548022 C26.0893055,437.958313 44.6808642,438.142305 56.2091441,438.1 C83.9962765,437.998029 109.708133,434.558792 133.163165,428.264084 C162.162506,420.48143 187.711982,408.3338 209.468469,392.731779 C237.320704,372.758373 258.956751,347.123694 273.656719,317.738186 C288.460266,288.145625 296.229645,254.749192 296.229645,219.5 C296.229645,180.020971 288.348351,142.711398 271.776797,110.433154 C254.673868,77.11989 228.314427,49.1657923 191.80917,29.7169571 C172.740489,19.557773 150.90348,11.7192845 126.171393,6.649894 C105.0002,2.31038759 81.7075731,0 56.2140068,0 C44.6954538,2.08928083e-15 26.1022743,0.228237777 0.434468085,0.684713331 Z" id="Path-2" fill="#FFFFFF"></path>
    </g>
</svg>