<?xml version="1.0" encoding="UTF-8"?>
<svg width="372px" height="438px" viewBox="0 0 372 438" version="1.1" xmlns="http://www.w3.org/2000/svg" xmlns:xlink="http://www.w3.org/1999/xlink">
    <!-- Generator: Sketch 52.2 (67145) - http://www.bohemiancoding.com/sketch -->
    <title>D</title>
    <desc>Created with Sketch.</desc>
    <g id="Page-1" stroke="none" stroke-width="1" fill="none" fill-rule="evenodd">
        <path d="M0,435.86 L0,1.86 L8.06,1.86 C34.1,1.86 96.1,0 127.72,0 C301.32,0 371.38,99.82 371.38,214.52 C371.38,336.66 288.3,437.1 122.76,437.1 C96.72,437.1 48.36,435.86 8.68,435.86 L0,435.86 Z M126.48,71.3 C108.5,71.3 93.62,71.92 76.26,73.16 L76.26,364.56 C97.34,365.8 114.7,365.8 125.24,365.8 C230.02,365.8 290.78,306.28 290.78,214.52 C290.78,127.1 230.02,71.3 126.48,71.3 Z" id="D" fill="#FFFFFF"></path>
    </g>
</svg>