<?xml version="1.0" encoding="UTF-8"?>
<svg width="365px" height="434px" viewBox="0 0 365 434" version="1.1" xmlns="http://www.w3.org/2000/svg" xmlns:xlink="http://www.w3.org/1999/xlink">
    <!-- Generator: Sketch 52.2 (67145) - http://www.bohemiancoding.com/sketch -->
    <title>D</title>
    <desc>Created with Sketch.</desc>
    <g id="Page-1" stroke="none" stroke-width="1" fill="none" fill-rule="evenodd" stroke-linecap="square">
        <g id="D" stroke="#3625D3">
            <path d="M0.5,0.5 L0.5,433.5" id="Line"></path>
            <path d="M7.5,0.5 L7.5,433.5" id="Line"></path>
            <path d="M14.5,0.5 L14.5,433.5" id="Line"></path>
            <path d="M21.5,0.5 L21.5,433.5" id="Line"></path>
            <path d="M28.5,0.5 L28.5,433.5" id="Line"></path>
            <path d="M35.5,0.5 L35.5,433.5" id="Line"></path>
            <path d="M42.5,0.5 L42.5,433.5" id="Line"></path>
            <path d="M49.5,0.5 L49.5,433.5" id="Line"></path>
            <path d="M56.5,0.5 L56.5,433.5" id="Line"></path>
            <path d="M63.5,0.5 L63.5,433.5" id="Line"></path>
            <path d="M70.5,0.5 L70.5,433.5" id="Line"></path>
            <path d="M77.5,0.5 L77.5,71.1091401 M77.5,363.008619 L77.5,433.5" id="Shape"></path>
            <path d="M84.5,0.5 L84.5,70.5468955 M84.5,363.388202 L84.5,433.5" id="Shape"></path>
            <path d="M91.5,0.5 L91.5,70.2018651 M91.5,363.678326 L91.5,433.5" id="Shape"></path>
            <path d="M98.5,0.5 L98.5,69.8772853 M98.5,363.78092 L98.5,433.5" id="Shape"></path>
            <path d="M105.5,0.5 L105.5,69.5814824 M105.5,363.973995 L105.5,433.5" id="Shape"></path>
            <path d="M112.5,0.5 L112.5,69.3759542 M112.5,364.014274 L112.5,433.5" id="Shape"></path>
            <path d="M119.5,0.5 L119.5,69.3046694 M119.5,364.128981 L119.5,433.5" id="Shape"></path>
            <path d="M126.5,0.5 L126.5,69.2545655 M126.5,364.072649 L126.5,433.5" id="Shape"></path>
            <path d="M133.5,0.5 L133.5,69.3262885 M133.5,363.94437 L133.5,433.5" id="Shape"></path>
            <path d="M140.5,0.5 L140.5,69.6144955 M140.5,363.662127 L140.5,433.5" id="Shape"></path>
            <path d="M147.5,0.766984169 L147.5,70.1565817 M147.5,363.133103 L147.5,433.376877" id="Shape"></path>
            <path d="M154.5,1.15666286 L154.5,70.7237929 M154.5,362.44063 L154.5,432.756167" id="Shape"></path>
            <path d="M161.5,1.63204828 L161.5,71.600246 M161.5,361.49583 L161.5,432.095511" id="Shape"></path>
            <path d="M168.5,2.26727535 L168.5,72.6478995 M168.5,360.339567 L168.5,431.283465" id="Shape"></path>
            <path d="M175.5,2.99206643 L175.5,73.970696 M175.5,358.919303 L175.5,430.312682" id="Shape"></path>
            <path d="M182.5,3.91367252 L182.5,75.5764469 M182.5,357.275754 L182.5,429.253907" id="Shape"></path>
            <path d="M189.5,4.96482656 L189.5,77.4510147 M189.5,355.255832 L189.5,428.01915" id="Shape"></path>
            <path d="M196.5,6.18711182 L196.5,79.5655038 M196.5,352.922875 L196.5,426.616713" id="Shape"></path>
            <path d="M203.5,7.5604893 L203.5,82.1113843 M203.5,350.342407 L203.5,425.008749" id="Shape"></path>
            <path d="M210.5,9.06219168 L210.5,84.9640255 M210.5,347.237294 L210.5,423.178969" id="Shape"></path>
            <path d="M217.5,10.8506494 L217.5,88.2108441 M217.5,343.863364 L217.5,421.125458" id="Shape"></path>
            <path d="M224.5,12.7899171 L224.5,91.7847087 M224.5,340.062128 L224.5,418.902671" id="Shape"></path>
            <path d="M231.5,14.902574 L231.5,96.036891 M231.5,335.501288 L231.5,416.47244" id="Shape"></path>
            <path d="M238.5,17.2718806 L238.5,100.811968 M238.5,330.391139 L238.5,413.837162" id="Shape"></path>
            <path d="M245.5,19.8347095 L245.5,106.329282 M245.5,324.532476 L245.5,410.898783" id="Shape"></path>
            <path d="M252.5,22.687022 L252.5,112.60664 M252.5,317.752218 L252.5,407.786657" id="Shape"></path>
            <path d="M259.5,25.8306058 L259.5,120.138331 M259.5,309.754548 L259.5,404.386123" id="Shape"></path>
            <path d="M266.5,29.2342262 L266.5,129.193172 M266.5,300.289039 L266.5,400.607592" id="Shape"></path>
            <path d="M273.5,32.9704188 L273.5,140.414748 M273.5,288.553909 L273.5,396.465436" id="Shape"></path>
            <path d="M280.5,37.0736169 L280.5,155.204205 M280.5,272.784627 L280.5,391.965246" id="Shape"></path>
            <path d="M287.5,41.5226524 L287.5,179.043103 M287.5,247.693877 L287.5,387.09664" id="Shape"></path>
            <path d="M294.5,46.5098246 L294.5,381.701202" id="Path"></path>
            <path d="M301.5,51.9675842 L301.5,375.867403" id="Path"></path>
            <path d="M308.5,57.9612226 L308.5,369.411753" id="Path"></path>
            <path d="M315.5,64.6491701 L315.5,362.317965" id="Path"></path>
            <path d="M322.5,72.1570235 L322.5,354.427301" id="Path"></path>
            <path d="M329.5,80.5627748 L329.5,345.644583" id="Path"></path>
            <path d="M336.5,90.1123488 L336.5,335.593253" id="Path"></path>
            <path d="M343.5,101.249238 L343.5,324.119044" id="Path"></path>
            <path d="M350.5,114.46802 L350.5,310.190651" id="Path"></path>
            <path d="M357.5,131.151762 L357.5,293.227743" id="Path"></path>
            <path d="M364.5,154.545184 L364.5,269.848152" id="Path"></path>
        </g>
    </g>
</svg>