<?xml version="1.0" encoding="UTF-8"?>
<svg width="78px" height="28px" viewBox="0 0 78 28" version="1.1" xmlns="http://www.w3.org/2000/svg" xmlns:xlink="http://www.w3.org/1999/xlink">
    <!-- Generator: Sketch 52.3 (67297) - http://www.bohemiancoding.com/sketch -->
    <title>LogoSmall</title>
    <desc>Created with Sketch.</desc>
    <g id="Page-1" stroke="none" stroke-width="1" fill="none" fill-rule="evenodd">
        <g id="Desktop" transform="translate(-16.000000, -14.000000)" stroke="#979797" stroke-width="2">
            <g id="LogoSmall" transform="translate(16.000000, 15.000000)">
                <path d="M19,2 L5,2 C2.790861,2 1,3.790861 1,6 L1,22 C1,24.209139 2.790861,26 5,26 L19,26" id="Path-2" stroke-linecap="round"></path>
                <polyline id="Path-3" stroke-linecap="round" stroke-linejoin="round" points="22 7.18674827 6 7.18674827 6 20.8837093 22 20.8837093 22 23 22 5"></polyline>
                <polyline id="Path-3" stroke-linecap="round" stroke-linejoin="round" points="58 1.33634617 49 1.33634617 49 9.70671127 58 9.70671127 58 11 58 0"></polyline>
                <polyline id="Path-4" stroke-linecap="round" stroke-linejoin="round" points="40 2 26 2 26 26"></polyline>
                <polyline id="Path-5" stroke-linecap="round" stroke-linejoin="round" points="40 6 31 6 31 26 40 26"></polyline>
                <polyline id="Path-6" stroke-linecap="round" stroke-linejoin="round" points="44 2 44 10.6857716 35 10.6857716 35 22.268574 44 22.268574 44 26"></polyline>
                <polyline id="Path-7" stroke-linecap="round" stroke-linejoin="round" points="44 22.5283501 44 14 54 14 54 26"></polyline>
                <path d="" id="Path-8"></path>
                <polyline id="Path-9" stroke-linecap="round" stroke-linejoin="round" points="61.953001 13 62 19.5 58 19.5 58 26"></polyline>
                <path d="M62,6 L62,9" id="Path-10" stroke-linecap="round" stroke-linejoin="round"></path>
                <path d="" id="Path-11"></path>
                <polyline id="Path-12" stroke-linecap="round" stroke-linejoin="round" points="64 26 64 23.6934408 66.8840782 23.6934408 66.8840782 2 77 2.08148337 77 26"></polyline>
                <path d="M67,2 L67,0" id="Path-13" stroke-linecap="round" stroke-linejoin="round"></path>
            </g>
        </g>
    </g>
</svg>