<?xml version="1.0" encoding="UTF-8"?>
<svg width="450px" height="612px" viewBox="0 0 450 612" version="1.1" xmlns="http://www.w3.org/2000/svg" xmlns:xlink="http://www.w3.org/1999/xlink">
    <!-- Generator: Sketch 52.3 (67297) - http://www.bohemiancoding.com/sketch -->
    <title>Rocket</title>
    <desc>Created with Sketch.</desc>
    <g id="Page-1" stroke="none" stroke-width="1" fill="none" fill-rule="evenodd">
        <g id="Artboard" transform="translate(-178.000000, -313.000000)">
            <g id="Rocket" transform="translate(178.000000, 303.000000)">
                <path d="M359.699396,9.79157981 C335.576644,45.241674 323.515267,91.5792067 323.515267,148.804178 C323.515267,206.029149 334.529144,250.069948 356.556898,280.926575 L362.971821,280.926575 C385.562894,250.690239 396.858431,206.64944 396.858431,148.804178 C396.858431,90.9589153 384.472086,44.6213826 359.699396,9.79157981 Z" id="Path-8" stroke="#87D1FF" stroke-width="1" fill="#87D1FF" fill-rule="evenodd" stroke-linecap="round" stroke-linejoin="round" transform="translate(360.186849, 145.359077) rotate(11.000000) translate(-360.186849, -145.359077) "></path>
                <path d="M323.614568,296.214472 C331.510461,326.027275 334.860473,349.460063 333.664602,366.512835 C332.468731,383.565608 325.683409,409.452682 313.308637,444.174059 C301.634648,409.485326 295.26516,383.598252 294.200173,366.512835 C293.135187,349.427419 296.451193,325.994631 304.148193,296.214472 L293.078892,296.214472 C283.992221,310.468661 279.448885,333.901449 279.448885,366.512835 C279.448885,399.124222 290.735469,433.922841 313.308637,470.908694 C336.531923,434.307264 347.712459,399.508644 346.850246,366.512835 C345.988032,333.517026 341.592817,310.084238 333.664602,296.214472 L323.614568,296.214472 Z" id="Path-10" fill="#87D1FF" fill-rule="evenodd" transform="translate(313.172715, 383.561583) rotate(11.000000) translate(-313.172715, -383.561583) "></path>
                <path d="M398.886267,188.985646 C407.343167,209.099274 411.571618,228.753774 411.571618,247.949145 C411.571618,267.144516 409.74207,286.520594 406.082975,306.077378 L376.770929,289.580312 C384.076042,268.578242 388.996707,252.447922 391.532927,241.189352 C394.069147,229.930781 396.52026,212.529546 398.886267,188.985646 Z" id="Path-9" fill="#87D1FF" fill-rule="evenodd" transform="translate(394.171273, 247.531512) rotate(11.000000) translate(-394.171273, -247.531512) "></path>
                <path d="M294.242811,168.645019 C302.699711,188.758647 306.928161,208.413146 306.928161,227.608517 C306.928161,246.803888 305.098614,266.179966 301.439519,285.736751 L272.127473,269.239684 C279.432585,248.237615 284.353251,232.107295 286.889471,220.848724 C289.425691,209.590154 291.876804,192.188919 294.242811,168.645019 Z" id="Path-9" fill="#87D1FF" fill-rule="evenodd" transform="translate(289.527817, 227.190885) scale(-1, 1) rotate(-11.000000) translate(-289.527817, -227.190885) "></path>
                <path d="M342.444156,50.1321045 L331.058945,77.5344484 C345.54746,74.3458591 356.623969,72.5317906 364.288473,72.092243 C371.952976,71.6526953 383.029485,72.1963219 397.518,73.7231227 L392.238976,48.6147017 C381.458217,47.4871059 373.251612,47.0091272 367.619162,47.1807654 C361.986712,47.3524037 353.595043,48.3361833 342.444156,50.1321045 Z" id="Path-11" fill="#3624D3" fill-rule="evenodd" transform="translate(364.288473, 62.340601) rotate(11.000000) translate(-364.288473, -62.340601) "></path>
                <path d="M358.769569,9.31406539 C392.517595,34.1627236 411.523571,80.3214439 415.787497,147.790226 C418.463034,198.565706 409.703604,246.406986 389.509207,291.314065 C375.907349,290.072231 365.68151,289.451314 358.831689,289.451314 C351.981869,289.451314 341.743905,290.072231 328.117798,291.314065 C308.089189,248.349472 299.323881,200.508192 301.821875,147.790226 C307.014601,80.3214439 325.997166,34.1627236 358.769569,9.31406539 Z" id="Triangle" stroke="#FFFFFF" stroke-width="3" stroke-linecap="square" transform="translate(358.831689, 150.314065) rotate(11.000000) translate(-358.831689, -150.314065) "></path>
                <circle id="Oval" stroke="#FFFFFF" stroke-width="3" fill="#3624D3" fill-rule="evenodd" transform="translate(363.527144, 123.212060) rotate(11.000000) translate(-363.527144, -123.212060) " cx="363.527144" cy="123.21206" r="19.5"></circle>
                <path d="M344.428979,52.6498924 C359.497294,50.6977351 370.830997,49.7216565 378.430088,49.7216565 C386.02918,49.7216565 397.362883,50.6977351 412.431197,52.6498924" id="Path-2" stroke="#FFFFFF" stroke-width="3" transform="translate(378.430088, 51.185774) rotate(11.000000) translate(-378.430088, -51.185774) "></path>
                <path d="M293.502893,210.17195 C313.318946,207.887119 328.067761,206.612876 337.749338,206.349221 M357.545729,206.35637 C367.169303,206.625384 381.821299,207.897244 401.501719,210.17195" id="Shape" stroke="#FFFFFF" stroke-width="3" transform="translate(347.502306, 208.193841) rotate(11.000000) translate(-347.502306, -208.193841) "></path>
                <path d="M304.714007,233.872154 C315.745584,232.696566 325.828266,232.052304 334.962053,231.93937 M350.190952,231.97579 C360.101087,232.192206 374.189235,233.483698 392.455395,235.850263" id="Shape" stroke="#FFFFFF" stroke-width="3" stroke-linecap="round" transform="translate(348.584701, 233.872154) rotate(11.000000) translate(-348.584701, -233.872154) "></path>
                <path d="M328.451959,78.3045974 C343.904258,74.4660139 358.937803,72.5467221 373.552595,72.5467221 C382.624968,72.5467221 391.755159,73.2863232 400.943168,74.7655255" id="Path-2" stroke="#FFFFFF" stroke-width="3" stroke-linecap="round" transform="translate(364.697563, 75.425660) rotate(11.000000) translate(-364.697563, -75.425660) "></path>
                <polygon id="Path-3" stroke="#FFFFFF" stroke-width="3" fill="#3624D3" fill-rule="evenodd" stroke-linejoin="round" transform="translate(340.106668, 247.570328) rotate(11.000000) translate(-340.106668, -247.570328) " points="339.724318 181.717141 330.268168 204.720268 339.724318 313.423515 349.945167 204.720268"></polygon>
                <path d="M304.396269,288.592994 L307.67811,297.750817 C317.935295,297.078897 325.647702,296.742937 330.815333,296.742937 C335.982965,296.742937 343.663385,297.078897 353.856596,297.750817 L357.234398,288.592994" id="Path-4" stroke="#FFFFFF" stroke-width="3" stroke-linejoin="round" transform="translate(330.815333, 293.171905) rotate(11.000000) translate(-330.815333, -293.171905) "></path>
                <path d="M284.645327,164.895648 C273.331138,180.449704 265.166398,195.963245 260.151109,211.436272 C255.13582,226.909299 252.168654,256.187082 251.249611,299.269622 L306.176405,267.107877" id="Path-5" stroke="#FFFFFF" stroke-width="3" stroke-linejoin="round" transform="translate(278.713008, 232.082635) rotate(11.000000) translate(-278.713008, -232.082635) "></path>
                <path d="M408.330352,188.937581 C397.016163,204.491637 388.851424,220.005178 383.836135,235.478205 C378.820846,250.951233 375.853679,280.229016 374.934636,323.311555 L429.86143,291.14981" id="Path-5" stroke="#FFFFFF" stroke-width="3" stroke-linejoin="round" transform="translate(402.398033, 256.124568) scale(-1, 1) rotate(-11.000000) translate(-402.398033, -256.124568) "></path>
                <path d="M293.402576,295.851215 C284.038539,310.857126 279.35652,334.331334 279.35652,366.273838 C279.35652,398.216343 290.661318,433.378893 313.270913,471.761488 C335.815251,433.808589 347.08742,398.760932 347.08742,366.618518 C347.08742,334.476105 342.405152,310.887003 333.040614,295.851215" id="Path-6" stroke="#FFFFFF" stroke-width="3" stroke-linejoin="round" transform="translate(313.221970, 383.806351) rotate(11.000000) translate(-313.221970, -383.806351) "></path>
                <path d="M331.877465,328.903507 C334.020081,342.947527 334.840167,355.204592 334.840167,367.54304 C334.840167,388.675549 325.704639,411.547401 314.762898,446.499304 C311.957541,436.976324 309.337442,428.439751 307.006826,420.6202 M300.435635,396.76699 C297.959516,386.332051 295.511281,376.952881 295.511281,367.54304 C295.511281,348.100123 298.468961,330.564738 303.298008,305.352964" id="Shape" stroke="#FFFFFF" stroke-width="3" stroke-linecap="round" stroke-linejoin="round" transform="translate(315.175724, 375.926134) rotate(11.000000) translate(-315.175724, -375.926134) "></path>
                <path d="M315.38276,312.596321 C311.254359,332.118562 309.334834,350.21266 309.624185,366.878616 C309.913536,383.544572 312.509093,398.648086 317.410857,412.189157 C322.340526,398.320235 324.961073,383.174536 325.2725,366.752061 C325.583926,350.329586 323.660679,332.277673 319.50276,312.596321" id="Path-7" stroke="#FFFFFF" stroke-width="3" stroke-linecap="round" stroke-linejoin="round" transform="translate(317.450404, 362.392739) rotate(11.000000) translate(-317.450404, -362.392739) "></path>
                <g id="Group" stroke-width="1" fill-rule="evenodd" transform="translate(353.746063, 215.458104) rotate(11.000000) translate(-353.746063, -215.458104) translate(282.246063, 11.458104)">
                    <path d="M35.835496,123.232002 L53.4801366,105.587361 M65.9514457,93.1160519 L100.154977,58.9125211" id="Shape" stroke="#ECECEC" stroke-width="0.5" stroke-linecap="round" stroke-linejoin="round"></path>
                    <path d="M35.6034187,127.464079 L52.0564048,111.011093 M70.9124745,92.1550231 L101.007234,62.0602635" id="Shape" stroke="#ECECEC" stroke-width="0.5" stroke-linecap="round" stroke-linejoin="round"></path>
                    <path d="M35.8105656,131.256932 L52.5469593,114.520538 M74.5252589,92.5422387 L101.602594,65.4649036" id="Shape" stroke="#ECECEC" stroke-width="0.5" stroke-linecap="round" stroke-linejoin="round"></path>
                    <path d="M35.798667,135.268831 L53.0833778,117.98412 M77.980132,93.0873655 L102.564537,68.5029602" id="Shape" stroke="#ECECEC" stroke-width="0.5" stroke-linecap="round" stroke-linejoin="round"></path>
                    <path d="M35.5952771,139.47222 L54.1717115,120.895786 M80.7002149,94.3672826 L103.449574,71.6179237" id="Shape" stroke="#ECECEC" stroke-width="0.5" stroke-linecap="round" stroke-linejoin="round"></path>
                    <path d="M35.596335,143.471163 L55.9491651,123.118332 M83.0891874,95.9783102 L104.079157,74.9883402" id="Shape" stroke="#ECECEC" stroke-width="0.5" stroke-linecap="round" stroke-linejoin="round"></path>
                    <path d="M35.8766427,147.190855 L57.6103139,125.457184 M85.2347134,97.8327841 L104.556733,78.5107642" id="Shape" stroke="#ECECEC" stroke-width="0.5" stroke-linecap="round" stroke-linejoin="round"></path>
                    <path d="M35.9197588,151.147739 L59.8438909,127.223607 M87.0926707,99.9748268 L105.286872,81.7806251" id="Shape" stroke="#ECECEC" stroke-width="0.5" stroke-linecap="round" stroke-linejoin="round"></path>
                    <path d="M36.0510479,155.01645 L62.4405089,128.626989 M88.6613177,102.40618 L105.730289,85.3372082" id="Shape" stroke="#ECECEC" stroke-width="0.5" stroke-linecap="round" stroke-linejoin="round"></path>
                    <path d="M36.2267436,158.840754 L65.1501418,129.917356 M89.8415727,105.225925 L106.330411,88.7370868" id="Shape" stroke="#ECECEC" stroke-width="0.5" stroke-linecap="round" stroke-linejoin="round"></path>
                    <path d="M36.422175,163.512477 L68.6314271,130.956888 M90.8143411,108.535448 L106.906302,92.2704554" id="Shape" stroke="#ECECEC" stroke-width="0.5" stroke-linecap="round" stroke-linejoin="round"></path>
                    <path d="M36.6776281,167.254277 L72.306796,131.241999 M90.9831222,112.364853 L107.388174,95.783402" id="Shape" stroke="#ECECEC" stroke-width="0.5" stroke-linecap="round" stroke-linejoin="round"></path>
                    <path d="M36.9873696,170.941205 L76.9035348,130.595833 M89.7624797,117.59862 L107.789628,99.3776317" id="Shape" stroke="#ECECEC" stroke-width="0.5" stroke-linecap="round" stroke-linejoin="round"></path>
                    <path d="M37.2718313,174.795666 L108.293641,103.773856" id="Path" stroke="#ECECEC" stroke-width="0.5" stroke-linecap="round" stroke-linejoin="round"></path>
                    <path d="M37.6343119,178.433186 L108.610407,107.45709" id="Path" stroke="#ECECEC" stroke-width="0.5" stroke-linecap="round" stroke-linejoin="round"></path>
                    <g id="Group-4" transform="translate(37.000000, 290.000000)" stroke="#ECECEC" stroke-linecap="round" stroke-linejoin="round" stroke-width="0.5">
                        <path d="M1.42723483,80.5488606 L15.9631445,66.012951" id="Path"></path>
                        <path d="M0.762552882,77.2135425 L15.9065826,62.0695128" id="Path"></path>
                        <path d="M0.762552882,73.2135425 L16.1610859,57.8150095" id="Path"></path>
                        <path d="M0.762552882,69.2135425 L16.4994614,53.476634" id="Path"></path>
                        <path d="M0.762552882,65.2135425 L16.7888134,49.187282" id="Path"></path>
                        <path d="M0.762552882,61.2135425 L17.3592434,44.616852" id="Path"></path>
                        <path d="M1.42723483,56.5488606 L17.9517352,40.0243602" id="Path"></path>
                        <path d="M1.42723483,52.5488606 L18.4442203,35.5318751" id="Path"></path>
                        <path d="M1.9517352,48.0243602 L19.0622002,30.9138952" id="Path"></path>
                        <path d="M2.44422035,43.5318751 L20.2437924,25.732303" id="Path"></path>
                        <path d="M3.17099452,38.8051009 L21.3438203,20.6322752" id="Path"></path>
                        <path d="M3.82119297,34.1549024 L21.3438203,16.6322752" id="Path"></path>
                        <path d="M4.25740739,29.718688 L22.6458716,11.3302238" id="Path"></path>
                        <path d="M5.52033132,24.4557641 L23.5777114,6.398384" id="Path"></path>
                        <path d="M6.50700959,19.4690858 L25.1097283,0.866367094" id="Path"></path>
                        <path d="M8.33456776,13.6415277 L21.6462265,0.329868957" id="Path"></path>
                        <path d="M10.9903971,6.98569831 L17.558317,0.4177784" id="Path"></path>
                        <path d="M1.61852313,84.3575723 L15.9065826,70.0695128" id="Path"></path>
                        <path d="M1.9517352,88.0243602 L15.9065826,74.0695128" id="Path"></path>
                        <path d="M2.44422035,91.5318751 L16.4994614,77.476634" id="Path"></path>
                        <path d="M3.17099452,94.8051009 L17.0672477,80.9088477" id="Path"></path>
                        <path d="M3.82119297,98.1549024 L17.0672477,84.9088477" id="Path"></path>
                        <path d="M4.39025384,101.585842 L17.9517352,88.0243602" id="Path"></path>
                        <path d="M5.52033132,104.455764 L18.4442203,91.5318751" id="Path"></path>
                        <path d="M6.18601621,107.790079 L19.0622002,94.9138952" id="Path"></path>
                        <path d="M7.0346168,110.941479 L19.5432443,98.4328511" id="Path"></path>
                        <path d="M7.82071878,114.155377 L20.2437924,101.732303" id="Path"></path>
                        <path d="M8.92915891,117.046937 L21.2889305,104.687165" id="Path"></path>
                    </g>
                    <g id="Group-4" transform="translate(83.000000, 290.000000)" stroke="#ECECEC" stroke-linecap="round" stroke-linejoin="round" stroke-width="0.5">
                        <path d="M7.07063456,36.9054609 L17.287654,26.6884414" id="Path"></path>
                        <path d="M6.63757226,33.3385232 L16.5079789,23.4681165" id="Path"></path>
                        <path d="M6.32358649,29.6525089 L15.6318638,20.3442316" id="Path"></path>
                        <path d="M5.59019826,26.3858972 L14.7632354,17.21286" id="Path"></path>
                        <path d="M4.880969,23.0951264 L13.8328421,14.1432533" id="Path"></path>
                        <path d="M4.11912112,19.8569743 L12.8007879,11.1753075" id="Path"></path>
                        <path d="M3.47184087,16.5042546 L11.634959,8.34113646" id="Path"></path>
                        <path d="M2.77568314,13.2004123 L10.4994614,5.47663403" id="Path"></path>
                        <path d="M2.0982473,9.87784812 L9.08214922,2.8939462" id="Path"></path>
                        <path d="M1.36449159,6.61160383 L7.45163951,0.524455908" id="Path"></path>
                        <path d="M0.507009592,3.46908583 L3.68948501,0.28661041" id="Path"></path>
                    </g>
                    <g id="Group-2" transform="translate(109.000000, 174.000000)" stroke="#ECECEC" stroke-linecap="round" stroke-linejoin="round" stroke-width="0.5">
                        <path d="M0.338737468,94.637358 L33.4744278,61.5016676" id="Path"></path>
                        <path d="M2.61852313,88.3575723 L33.7805801,57.1955153" id="Path"></path>
                        <path d="M4.76499721,82.2110982 L33.4744278,53.5016676" id="Path"></path>
                        <path d="M6.92303386,76.0530616 L33.4744278,49.5016676" id="Path"></path>
                        <path d="M8.96314445,70.012951 L33.4744278,45.5016676" id="Path"></path>
                        <path d="M10.4272348,64.5488606 L33.150392,41.8257035" id="Path"></path>
                        <path d="M11.9769054,58.9991901 L32.7415815,38.2345139" id="Path"></path>
                        <path d="M13.3902538,53.5858416 L32.1553737,34.8207217" id="Path"></path>
                        <path d="M14.5203313,48.4557641 L31.5427009,31.4333945" id="Path"></path>
                        <path d="M15.6858177,43.2902777 L31.0489065,27.9271889" id="Path"></path>
                        <path d="M16.7415815,38.2345139 L30.3438203,24.6322752" id="Path"></path>
                        <path d="M17.7805801,33.1955153 L29.7805801,21.1955153" id="Path"></path>
                        <path d="M18.4099798,28.5661156 L28.6295991,18.3464963" id="Path"></path>
                        <path d="M19.089084,23.8870114 L28.0622002,14.9138952" id="Path"></path>
                        <path d="M19.5756421,19.4004533 L26.9517352,12.0243602" id="Path"></path>
                        <path d="M20.0685786,14.9075168 L26.0672477,8.9088477" id="Path"></path>
                        <path d="M20.5777114,10.398384 L25.1610859,5.81500951" id="Path"></path>
                        <path d="M21.1610859,5.81500951 L24.131367,2.84472841" id="Path"></path>
                        <path d="M21.1610859,1.81500951 L22.8693987,0.106696752" id="Path"></path>
                        <path d="M2.61852313,96.3575723 L33.4157739,65.5603215" id="Path"></path>
                        <path d="M5.33041075,97.6456847 L33.3020484,69.674047" id="Path"></path>
                        <path d="M7.61040731,99.3656881 L33.150392,73.8257035" id="Path"></path>
                        <path d="M10.4272348,100.548861 L32.5862232,78.3898723" id="Path"></path>
                        <path d="M12.821193,102.154902 L32.1553737,82.8207217" id="Path"></path>
                        <path d="M15.3620594,103.614036 L31.5838743,87.3922211" id="Path"></path>
                        <path d="M17.7805801,105.195515 L31.3936375,91.5824579" id="Path"></path>
                        <path d="M20.3803996,106.595696 L30.6185231,96.3575723" id="Path"></path>
                        <path d="M22.7728138,108.203282 L30.3438203,100.632275" id="Path"></path>
                        <path d="M25.4994614,109.476634 L29.2437924,105.732303" id="Path"></path>
                        <path d="M28.0622002,110.913895 L28.6295991,110.346496" id="Path"></path>
                    </g>
                    <g id="Group-2" transform="translate(37.000000, 290.000000)"></g>
                    <g id="Group-2" transform="translate(17.900000, 230.000000) scale(-1, 1) translate(-17.900000, -230.000000) translate(0.900000, 174.000000)" stroke="#ECECEC" stroke-linecap="round" stroke-linejoin="round" stroke-width="0.5">
                        <path d="M0.338737468,94.637358 L33.4744278,61.5016676" id="Path"></path>
                        <path d="M2.61852313,88.3575723 L33.7805801,57.1955153" id="Path"></path>
                        <path d="M4.76499721,82.2110982 L33.4744278,53.5016676" id="Path"></path>
                        <path d="M6.92303386,76.0530616 L33.4744278,49.5016676" id="Path"></path>
                        <path d="M8.96314445,70.012951 L33.4744278,45.5016676" id="Path"></path>
                        <path d="M10.4272348,64.5488606 L33.150392,41.8257035" id="Path"></path>
                        <path d="M11.9769054,58.9991901 L32.7415815,38.2345139" id="Path"></path>
                        <path d="M13.3902538,53.5858416 L32.1553737,34.8207217" id="Path"></path>
                        <path d="M14.5203313,48.4557641 L31.5427009,31.4333945" id="Path"></path>
                        <path d="M15.6858177,43.2902777 L31.0489065,27.9271889" id="Path"></path>
                        <path d="M16.7415815,38.2345139 L30.3438203,24.6322752" id="Path"></path>
                        <path d="M17.7805801,33.1955153 L29.7805801,21.1955153" id="Path"></path>
                        <path d="M18.4099798,28.5661156 L28.6295991,18.3464963" id="Path"></path>
                        <path d="M19.089084,23.8870114 L28.0622002,14.9138952" id="Path"></path>
                        <path d="M19.5756421,19.4004533 L26.9517352,12.0243602" id="Path"></path>
                        <path d="M20.0685786,14.9075168 L26.0672477,8.9088477" id="Path"></path>
                        <path d="M20.5777114,10.398384 L25.1610859,5.81500951" id="Path"></path>
                        <path d="M21.1610859,5.81500951 L24.131367,2.84472841" id="Path"></path>
                        <path d="M21.1610859,1.81500951 L22.8693987,0.106696752" id="Path"></path>
                        <path d="M2.61852313,96.3575723 L33.4157739,65.5603215" id="Path"></path>
                        <path d="M5.33041075,97.6456847 L33.3020484,69.674047" id="Path"></path>
                        <path d="M7.61040731,99.3656881 L33.150392,73.8257035" id="Path"></path>
                        <path d="M10.4272348,100.548861 L32.5862232,78.3898723" id="Path"></path>
                        <path d="M12.821193,102.154902 L32.1553737,82.8207217" id="Path"></path>
                        <path d="M15.3620594,103.614036 L31.5838743,87.3922211" id="Path"></path>
                        <path d="M17.7805801,105.195515 L31.3936375,91.5824579" id="Path"></path>
                        <path d="M20.3803996,106.595696 L30.6185231,96.3575723" id="Path"></path>
                        <path d="M22.7728138,108.203282 L30.3438203,100.632275" id="Path"></path>
                        <path d="M25.4994614,109.476634 L29.2437924,105.732303" id="Path"></path>
                        <path d="M28.0622002,110.913895 L28.6295991,110.346496" id="Path"></path>
                    </g>
                    <g id="Group-3" transform="translate(36.000000, 0.000000)" stroke="#ECECEC" stroke-linecap="round" stroke-linejoin="round" stroke-width="0.5">
                        <path d="M2.04313734,182.02436 L72.8675872,111.19991" id="Path"></path>
                        <path d="M2.58090877,185.486589 L73.0109542,115.056543" id="Path"></path>
                        <path d="M3.15998075,188.907517 L73.2208434,118.846654" id="Path"></path>
                        <path d="M3.57385054,192.493647 L73.6091762,122.458321" id="Path"></path>
                        <path d="M4.20368121,195.863816 L73.9631445,126.104353" id="Path"></path>
                        <path d="M4.7253738,199.342124 L73.6689148,130.398583" id="Path"></path>
                        <path d="M5.4529386,202.614559 L73.7079269,134.359571" id="Path"></path>
                        <path d="M6.06889733,205.9986 L73.9673137,138.100184" id="Path"></path>
                        <path d="M6.97357694,209.890629 L31.0990406,185.505752 M38.2648063,178.262935 L73.6732206,142.473785" id="Shape"></path>
                        <path d="M7.61416326,213.243155 L27.5548714,193.088031 M39.8781476,180.632246 L73.7592173,146.386864" id="Shape"></path>
                        <path d="M8.4278674,216.420701 L26.7647282,197.88667 M41.1223571,183.374658 L73.5973349,150.550487" id="Shape"></path>
                        <path d="M9.15164689,218.915851 L27.1276733,200.939824 M41.8978295,186.169668 L73.4012154,154.666282" id="Shape"></path>
                        <path d="M9.99338285,222.074115 L27.4861161,204.581381 M43.3344645,188.733033 L73.42,158.647498" id="Shape"></path>
                        <path d="M10.9470641,225.120433 L27.7923653,208.275132 M44.5300344,191.537463 L73.0398809,163.027617" id="Shape"></path>
                        <path d="M11.8307754,228.236722 L28.0058036,212.061694 M45.5562293,194.511268 L72.530197,167.537301" id="Shape"></path>
                        <path d="M12.8719822,231.195515 L28.3108343,215.756663 M46.6364455,197.431052 L72.5068194,171.560678" id="Shape"></path>
                        <path d="M45.5013819,202.566116 L71.9230339,176.144464" id="Path"></path>
                        <path d="M15.0022879,237.06521 L29.1853159,222.882182 M14.5155201,233.53183 L28.698548,219.348802 M45.3801318,206.687366 L71.4912638,180.576234" id="Shape"></path>
                        <path d="M16.1644121,239.903085 L29.2610607,226.806437 M44.5068482,211.560649 L70.9698116,185.097686" id="Shape"></path>
                        <path d="M17.2773117,242.790186 L29.5585772,230.50892 M44.0767017,215.990796 L70.2499239,189.817574" id="Shape"></path>
                        <path d="M18.5938031,245.473695 L29.8619832,234.205514 M43.3734024,220.694095 L69.5397237,194.527774" id="Shape"></path>
                        <path d="M20.0968752,248.62622 L30.1968798,238.417614 M42.9596248,225.517635 L68.6061835,199.595307" id="Shape"></path>
                        <path d="M21.4023361,251.306722 L30.266456,242.347289 M43.2245306,229.249881 L67.6185231,204.593587" id="Shape"></path>
                        <path d="M22.7120906,253.982884 L30.8110925,245.796796 M42.2463887,234.23854 L66.5085645,209.715481" id="Shape"></path>
                        <path d="M23.8563994,256.211098 L30.9909198,249.076578 M42.0778791,237.989618 L65.3387375,214.72876" id="Shape"></path>
                        <path d="M25.2436112,258.823886 L31.3708899,252.696608 M41.5746211,242.492876 L63.7707409,220.296757" id="Shape"></path>
                        <path d="M26.6752764,261.392221 L31.6225086,256.444989 M41.3093818,246.758116 L62.1116246,225.955873" id="Shape"></path>
                        <path d="M28.2428745,263.824623 L31.8970762,260.170421 M41.0027126,251.064785 L59.9855082,232.081989" id="Shape"></path>
                        <path d="M29.8366136,266.230884 L32.2536912,263.813806 M40.5695199,255.497978 L57.518637,238.548861" id="Shape"></path>
                        <path d="M31.663726,268.934995 L33.2954443,267.285731 M39.951552,260.558053 L54.2457561,246.110147" id="Shape"></path>
                        <path d="M39.0834128,265.582458 L50.1066037,254.293807" id="Path"></path>
                        <path d="M38.5915134,269.873857 L44.0653571,264.400013" id="Path"></path>
                        <path d="M34.8906686,36.1768289 L49.9826018,21.0848958" id="Path"></path>
                        <path d="M6.73919824,68.3282993 L11.3171372,63.7503604 M38.5210207,36.5464769 L51.2587122,23.8087854" id="Shape"></path>
                        <path d="M5.39775474,73.6697428 L16.2721669,62.7953307 M42.3702848,36.6972127 L52.5480665,26.519431" id="Shape"></path>
                        <path d="M4.77178141,78.2957161 L20.7097277,62.3577698 M46.2112277,36.8562699 L53.7241941,29.3433035" id="Shape"></path>
                        <path d="M3.84499537,83.2225022 L25.0782024,61.9892951 M49.7945973,37.2729003 L54.9692801,32.0982174" id="Shape"></path>
                        <path d="M17.3244137,33.7430838 L42.7732295,8.29426805" id="Path"></path>
                        <path d="M17.8382109,37.2292866 L44.3471108,10.7203868" id="Path"></path>
                        <path d="M21.8382109,37.2292866 L45.8137127,13.2537849" id="Path"></path>
                        <path d="M28.3151732,10.7523244 L38.0963741,0.971123481" id="Path"></path>
                        <path d="M23.7242255,19.343272 L39.7430003,3.3244973" id="Path"></path>
                        <path d="M20.1962904,26.8712071 L41.29115,5.77634759" id="Path"></path>
                        <path d="M26.6752764,36.3922211 L47.2658043,15.8016932" id="Path"></path>
                        <path d="M30.6752764,36.3922211 L48.6322029,18.4352947" id="Path"></path>
                        <path d="M3.12060142,87.9468961 L29.2785094,61.7889881 M53.5277502,37.5397473 L56.1569364,34.9105612" id="Shape"></path>
                        <path d="M2.29458443,92.7729131 L33.4455312,61.6219664 M53.4354266,41.6320709 L57.3302885,37.7372091" id="Shape"></path>
                        <path d="M1.86160947,97.2058881 L37.3416269,61.7258707 M53.9935192,45.0739783 L58.4050065,40.662491" id="Shape"></path>
                        <path d="M1.309078,101.75842 L41.4161468,61.6513508 M54.735648,48.3318495 L59.430621,43.6368766" id="Shape"></path>
                        <path d="M0.828066939,106.239431 L45.2272877,61.8402098 M55.5039019,51.5635957 L60.590096,46.4774016" id="Shape"></path>
                        <path d="M0.668467275,110.263536 L48.5238098,61.8936199 M56.1302447,54.2053953 L61.2926848,48.9874451" id="Shape"></path>
                        <path d="M0.472072808,114.462042 L52.1340901,62.2445193 M56.7564653,57.5724412 L62.3049707,51.9642745" id="Shape"></path>
                        <path d="M0.185991107,118.7512 L55.7769292,62.56251 M57.3621206,60.9602735 L63.1014222,55.159259" id="Shape"></path>
                    </g>
                </g>
                <path d="M314.944887,449.975951 C312.267973,462.400271 310.394166,476.479172 309.323468,492.212655 C308.25277,507.946137 307.672423,523.354811 307.582428,538.438676 C315.161154,534.780896 322.064125,534.114229 328.291341,536.438676 C334.518557,538.763124 338.86575,545.774866 341.332921,557.473903 C346.584229,554.824543 351.421631,554.383338 355.845127,556.150289 C360.268623,557.917239 364.038717,562.53387 367.155408,570.000182 C375.130055,566.690212 383.201002,566.690212 391.368251,570.000182 C399.5355,573.310152 403.619124,580.266039 403.619124,590.867842 C418.415318,584.378012 429.270185,584.96309 436.183723,592.623074 C443.097261,600.283059 445.129015,609.307428 442.278987,619.696182 C449.237513,600.477289 448.1759,587.533373 439.094147,580.864434 C430.012394,574.195496 419.528371,574.195496 407.642079,580.864434 C404.927125,570.893492 400.350634,564.372762 393.912608,561.302245 C387.474581,558.231729 379.867142,558.941523 371.090291,563.431628 C368.839693,557.562069 365.636386,553.337871 361.480371,550.759034 C357.324355,548.180197 352.478436,547.409793 346.942615,548.447823 C344.047059,539.45968 339.70685,533.397783 333.92199,530.262133 C328.137129,527.126483 321.293938,527.126483 313.392417,530.262133 L317.661039,446.302558 L314.944887,449.975951 Z" id="Path-25" fill="#87D1FF" fill-rule="evenodd"></path>
                <path d="M290.053566,455.282678 C288.402982,470.115981 286.547196,481.216437 284.486206,488.584043 C282.425217,495.95165 278.758658,504.592428 273.486528,514.506378 C262.720896,510.510945 254.119208,509.986174 247.681463,512.932063 C241.243718,515.877952 236.130842,523.313607 232.342834,535.239026 C222.219715,534.501025 215.32322,535.281396 211.653349,537.580138 C207.983479,539.878881 204.49881,545.155029 201.199342,553.408582 C197.851964,544.908744 191.801219,540.130254 183.047105,539.073113 C174.292992,538.015971 166.704614,542.461128 160.281973,552.408582 C150.321064,548.614595 142.058995,548.947928 135.495764,553.408582 C128.932534,557.869237 126.369703,565.226306 127.807271,575.479789 C124.749279,575.142662 121.78739,575.659743 118.921603,577.031033 C116.055817,578.402322 113.920483,580.759664 112.515602,584.10306 C107.155616,578.354213 100.245276,576.498344 91.7845823,578.535453 C83.3238887,580.572562 77.6476274,587.957645 74.7557984,600.6907 C76.9164073,582.420524 69.7784359,569.068277 53.3418843,560.633958 C39.0838385,553.317526 15.7027336,560.633958 9.67152654,580.717261 C5.65072185,594.10613 7.83512247,607.018213 16.2247284,619.453508 L11.6754089,619.453508 C-5.70356929,595.886543 -3.28395411,573.871567 18.9342544,553.408582 C19.5935821,552.989915 31.6399137,543.016875 51.3084882,548.038547 C61.3360603,550.598731 68.4801148,559.745812 72.7406518,575.479789 C78.3888264,566.634535 83.2716097,561.685925 87.3890018,560.633958 C91.5063938,559.581991 97.5261569,560.517654 105.448291,563.440949 C108.258826,559.735943 110.614596,557.253221 112.515602,555.992782 C114.416609,554.732343 117.104476,553.870943 120.579204,553.408582 C123.358907,541.850372 126.58458,535.181312 130.256222,533.401404 C133.927865,531.621495 141.585971,533.014407 153.230539,537.580138 C161.070459,530.210898 167.310805,526.391908 171.951575,526.123169 C176.592345,525.854429 183.827949,528.893048 193.658387,535.239026 C198.582412,528.538719 203.043304,524.235639 207.041064,522.329788 C211.038825,520.423937 218.228408,519.172889 228.609814,518.576642 C233.070061,505.521165 237.493063,497.640613 241.878819,494.934989 C246.264575,492.229364 254.615769,492.229364 266.932399,494.934989 C272.01165,485.080349 275.659806,476.945335 277.876868,470.529945 C280.09393,464.114556 282.767387,453.957067 285.89724,440.057477 L290.053566,455.282678 Z" id="Path-26" fill="#87D1FF" fill-rule="evenodd"></path>
                <path d="M291.479682,455.551737 C288.695825,474.661606 285.20859,489.555204 281.017976,500.23253 C276.827361,510.909856 271.113862,521.890099 263.877477,533.173259 C259.570164,531.145328 255.368011,530.624273 251.271019,531.610097 C247.174027,532.59592 243.373833,534.997575 239.870437,538.815062" id="Path-12" stroke="#FFFFFF" stroke-width="3" stroke-linecap="round" stroke-linejoin="round"></path>
                <path d="M306.811313,458.687888 C302.97118,479.450764 300.759407,494.824601 300.175993,504.809401 C299.59258,514.794201 300.259247,525.864013 302.175993,538.018837 C307.749399,537.852924 311.304854,540.083563 312.842359,544.710755 C314.379864,549.337946 312.738486,554.157769 307.918226,559.170224" id="Path-13" stroke="#FFFFFF" stroke-width="3" stroke-linecap="round" stroke-linejoin="round"></path>
                <path d="M245.632745,547.405317 C236.994886,535.353598 227.143171,531.439219 216.077601,535.662178 C205.01203,539.885137 200.343466,548.683296 202.071911,562.056656" id="Path-14" stroke="#FFFFFF" stroke-width="3" stroke-linecap="round" stroke-linejoin="round"></path>
                <path d="M212.672641,566.067877 C204.268743,561.334118 196.57261,560.385725 189.584243,563.222697 C182.595876,566.05967 177.690757,572.1003 174.868885,581.344589" id="Path-15" stroke="#FFFFFF" stroke-width="3" stroke-linecap="round" stroke-linejoin="round"></path>
                <path d="M183.328986,596.893114 C178.245941,581.787763 168.450639,574.235087 153.943081,574.235087 C139.435523,574.235087 129.640221,582.807064 124.557175,599.951017" id="Path-16" stroke="#FFFFFF" stroke-width="3" stroke-linecap="round" stroke-linejoin="round"></path>
                <path d="M135.924694,605.803873 C130.455594,602.232216 124.865032,600.446387 119.153007,600.446387 C113.440982,600.446387 107.85042,602.232216 102.38132,605.803873" id="Path-17" stroke="#FFFFFF" stroke-width="3" stroke-linecap="round"></path>
                <path d="M102.61965,606.112125 C95.5794149,599.637448 87.7867686,597.809075 79.2417107,600.627007 C70.6966529,603.44494 66.2127134,609.934193 65.7898923,620.094768" id="Path-18" stroke="#FFFFFF" stroke-width="3"></path>
                <path d="M311.613629,555.561648 C314.135692,555.291522 316.559691,555.822882 318.885626,557.155726 C321.211562,558.48857 322.831842,560.274726 323.746466,562.514196" id="Path-19" stroke="#FFFFFF" stroke-width="3" stroke-linecap="round" stroke-linejoin="round"></path>
                <path d="M324.015778,562.457841 C335.091936,556.641507 345.481668,557.644964 355.184975,565.468212 C364.888283,573.29146 368.560605,582.784758 366.201944,593.948106" id="Path-20" stroke="#FFFFFF" stroke-width="3" stroke-linecap="round" stroke-linejoin="round"></path>
                <path d="M366.442685,593.940782 C373.995733,594.663007 380.146145,597.652881 384.893921,602.910404 C389.641697,608.167927 392.650181,613.675461 393.919372,619.433005" id="Path-21" stroke="#FFFFFF" stroke-width="3" stroke-linecap="round" stroke-linejoin="round"></path>
                <path d="M393.440387,616.960363 C399.581324,613.662904 406.956873,612.014174 415.567034,612.014174 C424.177195,612.014174 433.099686,614.631242 442.334506,619.865378" id="Path-22" stroke="#FFFFFF" stroke-width="3" stroke-linecap="round" stroke-linejoin="round"></path>
                <path d="M285.66246,434.317334 C281.273732,456.006278 278.026911,469.813397 275.921997,475.738691 C273.817083,481.663985 270.731206,488.310862 266.664365,495.679322 C256.333663,491.519701 247.785463,491.519701 241.019765,495.679322 C234.254068,499.838943 230.00911,507.847054 228.284893,519.703655 C222.353172,518.407388 215.819949,519.077446 208.685226,521.713829 C201.550503,524.350213 196.610376,529.179722 193.864846,536.202355 C189.01033,529.680735 182.376986,526.419925 173.964814,526.419925 C165.552642,526.419925 158.591438,530.014068 153.081204,537.202355 C146.085639,532.014068 138.844399,531.171114 131.357485,534.673492 C123.870571,538.17587 120.204855,544.095101 120.360337,552.431186 C117.277564,552.431186 114.513612,553.483379 112.068479,555.587766 C109.623347,557.692152 107.63737,560.821274 106.11055,564.975129 C100.559886,560.09198 94.2373947,558.577346 87.1430757,560.43123 C80.0487566,562.285113 75.3908334,568.529217 73.1693062,579.163543 C67.3533032,558.179652 56.5485125,547.687706 40.7549341,547.687706 C24.9613556,547.687706 13.1282185,555.128105 5.25552273,570.008902" id="Path-23" stroke="#FFFFFF" stroke-width="3" stroke-linecap="round" stroke-linejoin="round"></path>
                <path d="M319.306698,442.47626 C315.571504,468.26636 313.437283,486.316753 312.904035,496.627437 C312.370788,506.938122 312.370788,518.032207 312.904035,529.909693 C320.876506,526.749751 327.910326,526.749751 334.005493,529.909693 C340.100661,533.069635 344.305859,539.3796 346.621089,548.839587 C352.127339,547.972985 357.208285,548.732926 361.863928,551.119408 C366.519571,553.505891 369.581359,557.71133 371.049294,563.735728 C379.801426,558.862184 387.705073,558.179193 394.760234,561.686754 C401.815395,565.194315 406.102529,571.67895 407.621635,581.140657 C423.419436,574.693034 434.980521,575.272417 442.304889,582.878806 C449.629257,590.485195 449.629257,602.654101 442.304889,619.385525" id="Path-24" stroke="#FFFFFF" stroke-width="3"></path>
                <g id="Group-2" stroke-width="1" fill-rule="evenodd" transform="translate(105.843565, 563.357274) rotate(11.000000) translate(-105.843565, -563.357274) translate(34.343565, 518.357274)" stroke="#ECECEC" stroke-linecap="round" stroke-linejoin="round">
                    <path d="M0.338737468,55.637358 L5.68347646,50.4524883" id="Path" stroke-width="0.5"></path>
                    <path d="M2.61852313,57.3575723 L11.6914699,48.2457406" id="Path" stroke-width="0.5"></path>
                    <path d="M5.33041075,58.6456847 L16.4397421,47.32277" id="Path" stroke-width="0.5"></path>
                    <path d="M7.61040731,60.3656881 L21.409579,46.3567316" id="Path" stroke-width="0.5"></path>
                    <path d="M15.819786,56.1081045 L25.3990004,46.4412374" id="Path" stroke-width="0.5"></path>
                    <path d="M20.2695363,55.6901651 L28.5147817,47.4946567" id="Path" stroke-width="0.5"></path>
                    <path d="M24.8468098,55.3721455 L31.5838743,48.3922211" id="Path" stroke-width="0.5"></path>
                    <path d="M27.9480873,55.8865628 L33.666522,50.1681282" id="Path" stroke-width="0.5"></path>
                    <path d="M30.9084575,56.4419863 L36.0757728,51.274671" id="Path" stroke-width="0.5"></path>
                    <path d="M33.666522,57.5288906 L38.1504894,53.0449231" id="Path" stroke-width="0.5"></path>
                    <path d="M36.5480507,58.6703567 L40.4578331,54.7605742" id="Path" stroke-width="0.5"></path>
                    <path d="M39.6760603,59.6206481 L42.5812429,56.7154655" id="Path" stroke-width="0.5"></path>
                    <path d="M42.0209326,61.2022844 L44.365805,58.8574121" id="Path" stroke-width="0.5"></path>
                    <path d="M44.365805,62.7839208 L45.9474414,61.2022844" id="Path" stroke-width="0.5"></path>
                    <path d="M46.7106773,64.3655572 L47.6079588,63.4682757" id="Path" stroke-width="0.5"></path>
                    <path d="M48.6601406,66.5334117 L49.3936241,65.7999282 M57.7455385,57.4480138 L64.741064,50.4524883" id="Shape" stroke-width="0.5"></path>
                    <polyline id="Path" stroke-width="0.5" points="50.6601406 68.5334117 51.386345 67.8072073 55.5293116 63.6642407 70.0056107 49.1879416"></polyline>
                    <path d="M52.6601406,70.5334117 L74.0056107,49.1879416" id="Path" stroke-width="0.5"></path>
                    <path d="M54.0120091,73.1815432 L77.3303299,49.8632223 M95.6379419,31.5556104 L113.438814,13.7547379 M95.6379419,27.5556104 L109.438814,13.7547379" id="Shape" stroke-width="0.5"></path>
                    <path d="M55.514684,75.6788682 L80.2661983,50.927354 M86.0718977,45.1216546 L93.7890581,37.4044941 M96.6338853,34.559667 L117.438814,13.7547379" id="Shape" stroke-width="0.5"></path>
                    <path d="M56.7006023,78.49295 L120.34038,14.8531718" id="Path" stroke-width="0.5"></path>
                    <path d="M57.7006023,81.49295 L61.9936431,77.1999092 M73.1786679,66.0148844 L123.237945,15.955607" id="Shape" stroke-width="0.5"></path>
                    <path d="M58.3725765,84.8209758 L59.9614595,83.2320927 M58.8809942,88.312558 L59.2491195,87.9444327 M78.9899879,64.2035644 L141.711361,1.48219102 M82.9899879,64.2035644 L104.934199,42.2593532 M86.3968132,64.7967391 L104.274827,46.9187252 M89.3968132,65.7967391 L104.690319,50.5032334 M91.8986929,67.2948593 L93.6839298,65.5096225 M100.991821,58.1707051 L105.690319,53.5032334" id="Shape" stroke-width="0.5"></path>
                </g>
            </g>
        </g>
    </g>
</svg>